<svg width="129" height="108" viewBox="0 0 129 108" fill="none" xmlns="http://www.w3.org/2000/svg">
<path d="M47.2699 86.4645C50.637 86.4645 53.6229 85.8292 56.2276 84.5586C58.8324 83.2245 60.8653 81.3821 62.3265 79.0315C63.8512 76.6174 64.6454 73.7903 64.7089 70.5503H90.5338C90.4703 77.7927 88.5327 84.241 84.7208 89.8951C80.909 95.4858 75.7949 99.9011 69.3783 103.141C62.9618 106.318 55.7829 107.906 47.8417 107.906C39.8369 107.906 32.8486 106.572 26.8767 103.904C20.9685 101.235 16.0449 97.5505 12.106 92.8493C8.16715 88.0845 5.21301 82.5574 3.24358 76.268C1.27414 69.915 0.289429 63.1172 0.289429 55.8748V53.1113C0.289429 45.8053 1.27414 39.0076 3.24358 32.7181C5.21301 26.3651 8.16715 20.838 12.106 16.1368C16.0449 11.372 20.9685 7.65552 26.8767 4.98726C32.785 2.31899 39.7098 0.984863 47.6511 0.984863C56.1006 0.984863 63.5018 2.60488 69.8548 5.84491C76.2714 9.08494 81.2902 13.7226 84.9114 19.758C88.5962 25.7298 90.4703 32.8134 90.5338 41.0088H64.7089C64.6454 37.5782 63.9148 34.4652 62.5171 31.6699C61.183 28.8745 59.2135 26.651 56.6088 24.9992C54.0676 23.2839 50.9229 22.4263 47.1746 22.4263C43.1722 22.4263 39.9004 23.2839 37.3592 24.9992C34.818 26.651 32.8486 28.9381 31.4509 31.8605C30.0533 34.7193 29.0685 37.9911 28.4968 41.6759C27.9885 45.2971 27.7344 49.1089 27.7344 53.1113V55.8748C27.7344 59.8772 27.9885 63.7208 28.4968 67.4055C29.005 71.0903 29.958 74.3621 31.3556 77.2209C32.8168 80.0798 34.818 82.3351 37.3592 83.9869C39.9004 85.6386 43.204 86.4645 47.2699 86.4645Z" fill="black"/>
<path d="M97.7823 92.754C97.7823 88.6881 99.1799 85.2892 101.975 82.5574C104.834 79.8256 108.614 78.4597 113.315 78.4597C118.017 78.4597 121.765 79.8256 124.56 82.5574C127.419 85.2892 128.848 88.6881 128.848 92.754C128.848 96.8199 127.419 100.219 124.56 102.951C121.765 105.682 118.017 107.048 113.315 107.048C108.614 107.048 104.834 105.682 101.975 102.951C99.1799 100.219 97.7823 96.8199 97.7823 92.754Z" fill="black"/>
</svg>
